<svg width="504" height="518" viewBox="0 0 504 518" fill="none" xmlns="http://www.w3.org/2000/svg">
<g opacity="0.07" clip-path="url(#clip0_6_38)">
<path d="M2.7375 378.839L283.664 327.044L503.039 512.894" stroke="#466F5F" stroke-width="4" stroke-miterlimit="10"/>
<path d="M228.733 63.9242C242.144 44.6212 260.594 29.3707 282.07 19.8355C303.546 10.3003 327.224 6.84626 350.524 9.84987C373.823 12.8535 395.85 22.1996 414.202 36.8691C432.553 51.5387 446.526 70.9686 454.597 93.041C462.668 115.113 464.527 138.981 459.972 162.041C455.416 185.102 444.621 206.471 428.763 223.818C412.905 241.165 392.592 253.825 370.04 260.418C347.488 267.01 323.562 267.283 300.87 261.205L283.257 326.935" stroke="#466F5F" stroke-width="4" stroke-miterlimit="10"/>
</g>
<defs>
<clipPath id="clip0_6_38">
<rect width="521.562" height="455.574" fill="white" transform="translate(503.79 517.041) rotate(-165)"/>
</clipPath>
</defs>
</svg>
